# xmcd CD database file
#
# Track frame offsets:
#	150
#	55691
#	86798
#	117346
#	158998
#	201206
#	230958
#	264877
#
# Disc length: 3899 seconds
#
# Revision: 4
# Processed by: cddbd v1.5.2PL0 Copyright (c) Steve Scherf et al.
# Submitted via: CDex 1.51
#
DISCID=6b0f3908
DTITLE=Edvard Grieg - Chamber Music Vol.1
DYEAR=1900
DGENRE=Classique
TTITLE0=String Quartet N°1 in G minor Op.27 - I. Un poco andante-allegro molto ed agitato  [Raphael Quartet]
TTITLE1=String Quartet N°1 in G minor Op.27 - II. Romanze, andantino-allegro agitato
TTITLE2=String Quartet N°1 in G minor Op.27 - III. Intermezzo, allegro molto marcato-piu vivo e scherzando
TTITLE3=String Quartet N°1 in G minor Op.27 - IV. Finale, lento-presto al saltarello
TTITLE4=String Quartet N°2 in F major (completed by Julius Röntgen) - I. Sostenuto-allegro vivace e grazioso
TTITLE5=String Quartet N°2 in F major (completed by Julius Röntgen) - II. Allegro scherzando
TTITLE6=String Quartet N°2 in F major (completed by Julius Röntgen) - III. Adagio
TTITLE7=String Quartet N°2 in F major (completed by Julius Röntgen) - IV. Allegro giocoso
EXTD=
EXTT0=
EXTT1=
EXTT2=
EXTT3=
EXTT4=
EXTT5=
EXTT6=
EXTT7=
PLAYORDER=
